<svg xmlns="http://www.w3.org/2000/svg" width="13.288" height="12.855" viewBox="0 0 13.288 12.855">
  <path id="_icon_fave_svg_" data-name="&lt;icon&gt;&lt;fave&gt;&lt;svg&gt;" d="M8.546,2.17A1.185,1.185,0,0,1,9.6,2.794l1.248,2.284a1.2,1.2,0,0,0,.821.6l2.555.5a1.2,1.2,0,0,1,.65,1.988L13.079,10.1a1.2,1.2,0,0,0-.309.959l.322,2.619a1.2,1.2,0,0,1-1.7,1.228L9.059,13.8a1.2,1.2,0,0,0-1.024,0L5.7,14.908A1.2,1.2,0,0,1,4,13.68l.322-2.619a1.2,1.2,0,0,0-.309-.959L2.222,8.165a1.2,1.2,0,0,1,.65-1.988l2.555-.5a1.2,1.2,0,0,0,.821-.6L7.5,2.794A1.185,1.185,0,0,1,8.546,2.17Z" transform="translate(-1.903 -2.17)" fill="#ffdf41"/>
</svg>
